<svg width="22" height="24" viewBox="0 0 22 24" fill="none" xmlns="http://www.w3.org/2000/svg">
<path fill-rule="evenodd" clip-rule="evenodd" d="M19.6175 18.375H13.055C13.055 19.0712 12.7785 19.7389 12.2862 20.2312C11.7939 20.7234 11.1262 21 10.43 21C9.73386 21 9.06618 20.7234 8.57389 20.2312C8.08161 19.7389 7.80505 19.0712 7.80505 18.375H1.24255C0.973371 18.368 0.713498 18.275 0.50095 18.1097C0.288403 17.9444 0.134338 17.7154 0.0612983 17.4563C-0.016166 17.203 -0.0202941 16.933 0.0493923 16.6774C0.119079 16.4219 0.259728 16.1914 0.455048 16.0125C1.10513 15.5217 1.63293 14.8872 1.99722 14.1586C2.3615 13.43 2.55242 12.6271 2.55505 11.8125V7.875C2.55505 5.78642 3.38473 3.78338 4.86158 2.30653C6.33843 0.829685 8.34147 0 10.43 0C12.5186 0 14.5217 0.829685 15.9985 2.30653C17.4754 3.78338 18.305 5.78642 18.305 7.875V11.8125C18.3077 12.6271 18.4986 13.43 18.8629 14.1586C19.2272 14.8872 19.755 15.5217 20.4051 16.0125C20.6186 16.1777 20.7725 16.408 20.8435 16.6685C20.9146 16.929 20.8989 17.2055 20.7988 17.4563C20.7258 17.7154 20.5717 17.9444 20.3591 18.1097C20.1466 18.275 19.8867 18.368 19.6175 18.375Z" transform="translate(1 3)" fill="currentColor"/>
<path d="M7 0C2.63705 1.5017 1.13003 3.28724 0 8" transform="translate(1 1)" stroke="currentColor" stroke-linejoin="round"/>
</svg>
