<svg width="40" height="40" viewBox="0 0 40 40" fill="none" xmlns="http://www.w3.org/2000/svg">
<path d="M21.3388 3.66118C18.9779 1.30024 15.8389 0 12.5 0C9.16113 0 6.02212 1.30024 3.66118 3.66118C1.30024 6.02212 0 9.16113 0 12.5C0 15.8389 1.30024 18.9779 3.66118 21.3388C6.02212 23.6998 9.16113 25 12.5 25C15.8389 25 18.9779 23.6998 21.3388 21.3388C23.6998 18.9779 25 15.8389 25 12.5C25 9.16113 23.6998 6.02212 21.3388 3.66118ZM12.5 23.3333C6.52651 23.3333 1.66665 18.4735 1.66665 12.5C1.66665 6.52646 6.52651 1.66665 12.5 1.66665C18.4735 1.66665 23.3333 6.52651 23.3333 12.5C23.3333 18.4735 18.4735 23.3333 12.5 23.3333Z" transform="translate(8 8)" fill="currentColor"/>
<path d="M2 1V0H4.5V7.5H2V6.5M2 1H0V6.5H2M2 1V6.5" transform="translate(4 17)" stroke="currentColor" stroke-width="1.5"/>
<path d="M2 1V0H4.5V7.5H2V6.5M2 1H0V6.5H2M2 1V6.5" transform="translate(37 24.5037) rotate(180)" stroke="currentColor" stroke-width="1.5"/>
<path d="M9.72222 -2.98023e-09C4.36138 -2.98023e-09 -2.98023e-09 4.36138 -2.98023e-09 9.72222C-2.98023e-09 15.0831 4.36138 19.4444 9.72222 19.4444C15.0831 19.4444 19.4444 15.0831 19.4444 9.72222C19.4444 4.36138 15.0831 -2.98023e-09 9.72222 -2.98023e-09ZM9.72222 1.66665C13.8827 1.66665 17.3166 4.83711 17.7349 8.88887H12.9861C12.9861 8.88887 13.6158 7.31151 13.8817 6.64565L12.7988 5.5627L9.2042 6.99751C8.38106 7.32568 7.81816 8.0583 7.67119 8.88882H1.70957C2.12788 4.83711 5.56172 1.66665 9.72222 1.66665ZM11.6142 7.83013L10.9883 9.39785L10.9818 9.41416C10.8673 9.70195 10.6541 10.0608 10.2884 10.1362C10.035 10.1882 9.73594 10.0939 9.54321 9.90127C9.43359 9.79175 9.35986 9.66348 9.32393 9.51968C9.23828 9.17783 9.3835 8.72026 9.82173 8.54561L11.6142 7.83013ZM9.72222 17.7778C5.56172 17.7778 2.12788 14.6073 1.70957 10.5556H7.96284C8.07227 10.7456 8.20693 10.9222 8.3646 11.0799C8.83853 11.5538 9.48975 11.8172 10.1439 11.8172C10.3049 11.8172 10.4662 11.8013 10.625 11.7685C11.3076 11.6277 11.8769 11.2034 12.2698 10.5556H17.7348C17.3166 14.6073 13.8827 17.7778 9.72222 17.7778Z" transform="translate(10.7778 10.7778)" fill="currentColor"/>
</svg>
