<svg width="34" height="30" viewBox="0 0 34 30" fill="none" xmlns="http://www.w3.org/2000/svg">
<path fill-rule="evenodd" clip-rule="evenodd" d="M0 24.0909V0C0 0 19.3924 0 31.8182 0C31.8182 9.40809 31.8182 24.0909 31.8182 24.0909H26.1364L25 25.2749H22L20.4545 24.0909H0Z" transform="translate(1 1)" fill="white"/>
<path d="M31.8182 0C19.3924 0 0 0 0 0V24.0909H20.4545M31.8182 0C31.8182 9.40809 31.8182 14.6828 31.8182 24.0909M31.8182 0C31.8182 9.40809 31.8182 24.0909 31.8182 24.0909M31.8182 24.0909C29.5993 24.0909 26.1364 24.0909 26.1364 24.0909M31.8182 24.0909H26.1364M20.4545 24.0909H26.1364M20.4545 24.0909L22 25.2749H25L26.1364 24.0909" transform="translate(1 1)" stroke="currentColor" stroke-width="2"/>
<path d="M0.294118 0L0 0.666667V2H5V0.666667L4.70588 0H0.294118Z" transform="translate(22 27)" stroke="currentColor" stroke-width="1.5"/>
<path d="M11.8433 2.4716C10.253 0.877784 8.15 0 5.92166 0C3.69331 0 1.5903 0.877784 0 2.4716C0.533785 3.02388 0.533399 3.02388 1.03898 3.524C2.35137 2.20871 4.08536 1.48442 5.92166 1.48442C7.75795 1.48442 9.49195 2.20876 10.8043 3.524C11.3098 3.02388 11.3098 3.02388 11.8433 2.4716Z" transform="translate(11.0744 8.10577)" fill="currentColor"/>
<path d="M3.84482 0C5.30527 0 6.67074 0.589263 7.68964 1.65928L6.62649 2.68694C5.88801 1.91148 4.9002 1.48442 3.84482 1.48442C2.78943 1.48442 1.80157 1.91148 1.06315 2.68694L0 1.65928C1.0189 0.589263 2.38437 0 3.84482 0Z" transform="translate(13.1512 11.2634)" fill="currentColor"/>
<path fill-rule="evenodd" clip-rule="evenodd" d="M3.60923 0.903812C3.17396 0.329392 2.51618 0 1.80466 0C1.09315 0 0.435365 0.329441 0 0.903812L1.17094 1.8047C1.32525 1.60114 1.55621 1.48442 1.80461 1.48442C2.05302 1.48442 2.28403 1.60114 2.43829 1.8047L3.60923 0.903812Z" transform="translate(15.1909 14.4211)" fill="currentColor"/>
</svg>
