<svg width="197" height="35" viewBox="0 0 197 35" fill="none" xmlns="http://www.w3.org/2000/svg">
<path d="M192.611 9.61772V16.2241H183.741V9.61772H179.375V27.079H183.741V20.0291H192.611V27.079H197V9.61772H192.611Z" fill="#00B956"/>
<path fill-rule="evenodd" clip-rule="evenodd" d="M116.206 9.22089C117.607 9.22089 119.078 9.99124 119.801 11.5786L126.945 27.079H122.299L120.735 23.3907H111.678L110.114 27.079H105.468L112.612 11.5786C113.335 9.99124 114.806 9.22089 116.206 9.22089ZM115.856 13.5629L113.172 19.8891H119.241L116.557 13.5629C116.487 13.3528 116.323 13.3061 116.207 13.3061C116.09 13.3061 115.95 13.3761 115.856 13.5629Z" fill="#00B956"/>
<path d="M67.7676 6.46628C65.7133 6.46628 64.4061 7.56345 63.449 9.75778L57.753 22.8771L52.0571 9.75778C51.1 7.56345 49.7927 6.46628 47.7385 6.46628C45.8243 6.46628 43.84 7.84357 43.84 10.8083V27.079H48.2053V11.2751L53.948 24.3011C54.7183 26.1219 55.9555 27.2658 57.753 27.2658C59.5505 27.2658 60.7878 26.1219 61.5581 24.3011L67.3007 11.2751V27.079H71.666V10.8316C71.666 7.84357 69.6818 6.46628 67.7676 6.46628Z" fill="#00B956"/>
<path d="M79.3229 23.3907C79.1128 23.3907 78.9494 23.2273 78.9494 23.0172V19.9124H89.851V16.3408H78.9494V13.6796C78.9494 13.4695 79.1128 13.3061 79.3229 13.3061H90.1078V9.61772H77.1752C75.6579 9.61772 74.5841 10.8783 74.5841 12.2089V24.4412C74.5841 25.7718 75.6812 27.0323 77.1752 27.0323H90.1078V23.344H79.3229V23.3907Z" fill="#00B956"/>
<path d="M97.5312 27.0791V13.7029C97.5312 13.4928 97.6946 13.3294 97.9047 13.3294H108.69V9.64109H95.757C94.2397 9.64109 93.1659 10.9017 93.1659 12.2323V27.0791H97.5312Z" fill="#00B956"/>
<path fill-rule="evenodd" clip-rule="evenodd" d="M167.236 9.36098C173.843 9.36098 176.481 12.2089 176.481 18.3251C176.481 24.3478 173.796 27.2425 167.19 27.2425H165.742C159.136 27.2425 156.451 24.3478 156.451 18.3251C156.451 12.2089 159.066 9.36098 165.696 9.36098H167.236ZM165.766 23.6242H167.166C170.785 23.6242 172.232 21.9901 172.232 18.3251V18.3018C172.232 14.7535 170.878 13.0027 167.166 13.0027H165.766C161.937 13.0027 160.7 14.7535 160.7 18.3018V18.3251C160.7 21.9901 162.124 23.6242 165.766 23.6242Z" fill="#00B956"/>
<path fill-rule="evenodd" clip-rule="evenodd" d="M135.605 6.88649H144.266C150.709 6.88649 153.3 10.1546 153.323 15.8506C153.323 16.7377 153.253 17.5547 153.137 18.3251C152.46 22.3636 150.079 24.838 144.032 24.838H142.142V27.079H137.776V24.838H135.862C129.816 24.838 127.435 22.3636 126.758 18.3251C126.618 17.5547 126.571 16.7377 126.571 15.8506C126.571 10.1546 129.139 6.88649 135.605 6.88649ZM137.753 21.1496H135.746C132.781 21.1496 131.73 20.0525 131.077 18.325C130.82 17.648 130.82 16.8077 130.82 15.8506C130.82 12.1389 132.547 10.5515 135.068 10.5515H137.753V21.1496ZM148.795 18.325C148.141 20.0525 147.067 21.1496 144.126 21.1496H142.118V10.5515H144.803C147.324 10.5515 149.051 12.1155 149.051 15.8506C149.051 16.8077 149.051 17.648 148.795 18.325Z" fill="#00B956"/>
<path fill-rule="evenodd" clip-rule="evenodd" d="M19.679 18.185V0.140058C28.3163 1.19054 35.016 8.56725 35.0393 17.4847C35.0393 27.1491 27.1958 34.9927 17.5313 34.9927C16.9944 34.9927 16.4575 34.9693 15.9206 34.9226V19.7957C15.9206 19.7023 15.9907 19.609 16.1073 19.609H18.255C19.0254 19.609 19.679 18.9787 19.679 18.185ZM19.3055 27.0558C18.0916 27.0558 17.1112 26.0753 17.1112 24.8614C17.1112 23.6475 18.0916 22.6671 19.3055 22.6671C20.5194 22.6671 21.4998 23.6475 21.4998 24.8614C21.4998 26.0753 20.5194 27.0558 19.3055 27.0558ZM22.2469 24.8614C22.2469 26.0753 23.2273 27.0558 24.4411 27.0558C25.6551 27.0558 26.6355 26.0753 26.6355 24.8614C26.6355 23.6475 25.6551 22.6671 24.4411 22.6671C23.2273 22.6671 22.2469 23.6475 22.2469 24.8614ZM27.3825 24.8614C27.3825 26.0753 28.363 27.0558 29.5769 27.0558C30.7907 27.0558 31.7712 26.0753 31.7712 24.8614C31.7712 23.6475 30.7907 22.6671 29.5769 22.6671C28.363 22.6671 27.3825 23.6475 27.3825 24.8614Z" fill="#00B956"/>
<path fill-rule="evenodd" clip-rule="evenodd" d="M0 17.508C0 7.84358 7.84356 0 17.508 0H17.5547V17.3212C17.5547 17.438 17.4613 17.508 17.368 17.508H15.1736C14.4266 17.5313 13.8196 18.1616 13.7963 18.9086V34.6191C5.90604 32.915 0 25.9118 0 17.508ZM11.9522 12.2323C11.9522 13.4461 12.9326 14.4266 14.1465 14.4266C15.3604 14.4266 16.3408 13.4461 16.3408 12.2323C16.3408 11.0184 15.3604 10.0379 14.1465 10.0379C12.9326 10.0379 11.9522 11.0184 11.9522 12.2323Z" fill="#00B956"/>
</svg>
