<svg width="150" height="134" viewBox="0 0 150 134" fill="none" xmlns="http://www.w3.org/2000/svg">
<g clip-path="url(#clip0)">
<path d="M93.2667 57.5816C92.5972 57.5816 91.9428 57.383 91.3862 57.011C90.8296 56.6389 90.3959 56.1102 90.1399 55.4916C89.8839 54.873 89.8171 54.1923 89.9481 53.5358C90.079 52.8792 90.4017 52.2763 90.8754 51.8032C91.3491 51.3301 91.9525 51.0082 92.6093 50.8781C93.266 50.7481 93.9465 50.8157 94.5648 51.0725C95.183 51.3293 95.7112 51.7638 96.0825 52.3209C96.4538 52.8779 96.6515 53.5326 96.6506 54.2021C96.6506 54.6463 96.5631 55.0861 96.393 55.4964C96.2228 55.9067 95.9735 56.2795 95.6592 56.5934C95.3449 56.9072 94.9719 57.1561 94.5613 57.3256C94.1508 57.4952 93.7108 57.5822 93.2667 57.5816ZM85.3347 57.5816C84.6652 57.5816 84.0107 57.383 83.4542 57.011C82.8976 56.6389 82.4638 56.1102 82.2078 55.4916C81.9518 54.873 81.8851 54.1923 82.016 53.5358C82.147 52.8792 82.4697 52.2763 82.9434 51.8032C83.4171 51.3301 84.0205 51.0082 84.6772 50.8781C85.334 50.7481 86.0145 50.8157 86.6328 51.0725C87.251 51.3293 87.7792 51.7638 88.1505 52.3209C88.5218 52.8779 88.7195 53.5326 88.7186 54.2021C88.7186 54.6463 88.6311 55.0861 88.4609 55.4964C88.2908 55.9067 88.0415 56.2795 87.7272 56.5934C87.4129 56.9072 87.0398 57.1561 86.6293 57.3256C86.2188 57.4952 85.7788 57.5822 85.3347 57.5816ZM77.3981 57.5816C76.7286 57.5816 76.0742 57.383 75.5176 57.011C74.961 56.6389 74.5273 56.1102 74.2713 55.4916C74.0153 54.873 73.9486 54.1923 74.0795 53.5358C74.2104 52.8792 74.5332 52.2763 75.0069 51.8032C75.4806 51.3301 76.084 51.0082 76.7407 50.8781C77.3974 50.7481 78.078 50.8157 78.6962 51.0725C79.3145 51.3293 79.8427 51.7638 80.214 52.3209C80.5853 52.8779 80.783 53.5326 80.7821 54.2021C80.7821 54.6463 80.6945 55.0861 80.5244 55.4964C80.3543 55.9067 80.105 56.2795 79.7907 56.5934C79.4764 56.9072 79.1033 57.1561 78.6928 57.3256C78.2822 57.4952 77.8423 57.5822 77.3981 57.5816ZM77.9486 15.9407V43.8743C77.945 44.4567 77.7108 45.0139 77.2973 45.424C76.8838 45.8342 76.3246 46.0638 75.7422 46.0626H72.4079C72.3289 46.0626 72.2532 46.0939 72.1973 46.1498C72.1415 46.2056 72.1101 46.2814 72.1101 46.3603V69.7729C72.9358 69.8451 73.766 69.8902 74.6097 69.8902C81.5254 69.9283 88.1935 67.3183 93.2457 62.5956C98.2979 57.8729 101.351 51.3958 101.779 44.4932C102.207 37.5906 99.9764 30.7861 95.5459 25.4758C91.1154 20.1655 84.8206 16.7522 77.9531 15.9362" fill="#731982"/>
<path d="M69.4165 38.0628C68.7472 38.0628 68.093 37.8644 67.5365 37.4925C66.98 37.1207 66.5462 36.5922 66.2901 35.9739C66.034 35.3555 65.967 34.6751 66.0976 34.0187C66.2281 33.3623 66.5504 32.7593 67.0237 32.286C67.4969 31.8128 68.0999 31.4905 68.7563 31.3599C69.4127 31.2294 70.0931 31.2964 70.7115 31.5525C71.3298 31.8086 71.8583 32.2423 72.2302 32.7988C72.602 33.3553 72.8005 34.0096 72.8005 34.6789C72.8005 35.5764 72.4439 36.4371 71.8093 37.0717C71.1747 37.7063 70.314 38.0628 69.4165 38.0628ZM74.6053 15.7332C67.9115 15.7122 61.4473 18.1718 56.4606 22.6373C51.474 27.1027 48.3185 33.2573 47.6035 39.9128C46.8884 46.5683 48.6644 53.2527 52.5887 58.6756C56.5129 64.0984 62.3071 67.8751 68.8525 69.2766V44.9797C68.8658 44.4168 69.0929 43.8802 69.4876 43.4787C69.8824 43.0773 70.4151 42.8412 70.9776 42.8184H74.3932C74.4703 42.8186 74.5446 42.7892 74.6008 42.7364C74.657 42.6835 74.6909 42.6112 74.6955 42.5342V15.7377L74.6053 15.7332Z" fill="#731982"/>
<path d="M130.657 85.8309V90.9385H123.799V85.8309H120.415V99.3172H123.799V93.8667H130.657V99.3172H134.041V85.8309H130.657Z" fill="#731982"/>
<path d="M69.218 93.772L71.289 88.8856C71.3088 88.8285 71.346 88.7791 71.3954 88.7443C71.4448 88.7095 71.5038 88.691 71.5642 88.6916C71.6248 88.6903 71.6841 88.7085 71.7336 88.7434C71.7831 88.7783 71.8202 88.8281 71.8394 88.8856L73.924 93.7855L69.218 93.772ZM74.3526 87.3334C74.1154 86.7929 73.7267 86.3326 73.2335 86.0083C72.7402 85.684 72.1635 85.5096 71.5732 85.5061C70.9834 85.5093 70.4073 85.6837 69.9147 86.0081C69.4221 86.3324 69.0343 86.7929 68.7984 87.3334L63.2667 99.3172H66.8763L68.081 96.4702H75.079L76.2837 99.3172H79.8933L74.3526 87.3334Z" fill="#731982"/>
<path d="M34.1194 83.3855C32.5357 83.3855 31.525 84.2292 30.776 85.9257L26.3633 96.0776L21.9551 85.9257C21.2061 84.2292 20.1955 83.3855 18.6118 83.3855C17.1318 83.3855 15.6023 84.4458 15.6023 86.7514V99.3172H18.9772V87.0808L23.417 97.147C24.0126 98.5502 24.9691 99.4345 26.3633 99.439C27.7575 99.439 28.7186 98.5366 29.3141 97.147L33.7539 87.0808V99.3037H37.1288V86.7514C37.1288 84.4458 35.5993 83.3855 34.1194 83.3855Z" fill="#731982"/>
<path d="M43.0531 96.4701C42.9761 96.4689 42.9027 96.4375 42.8486 96.3827C42.7946 96.3278 42.7643 96.2539 42.7643 96.1769V93.772H51.1927V91.0197H42.7643V88.9667C42.7643 88.8902 42.7948 88.8167 42.8489 88.7626C42.9031 88.7084 42.9765 88.678 43.0531 88.678H51.3867V85.8309H41.3882C40.856 85.8333 40.3462 86.0455 39.9695 86.4214C39.5927 86.7973 39.3794 87.3066 39.3759 87.8388V97.3139C39.3794 97.8461 39.5927 98.3554 39.9695 98.7313C40.3462 99.1072 40.856 99.3193 41.3882 99.3217H51.3867V96.4746L43.0531 96.4701Z" fill="#731982"/>
<path d="M57.1259 99.3172V88.9667C57.1259 88.8902 57.1563 88.8167 57.2105 88.7626C57.2646 88.7084 57.3381 88.678 57.4147 88.678H65.7528V85.8309H55.7543C55.2217 85.8321 54.7112 86.0439 54.3342 86.4201C53.9572 86.7962 53.7443 87.3062 53.7419 87.8388V99.3172H57.1259Z" fill="#731982"/>
<path d="M110.994 96.6596H109.911C107.091 96.6596 106.004 95.3872 106.004 92.5627C106.004 89.824 106.96 88.4749 109.911 88.4749H110.994C113.859 88.4749 114.902 89.8285 114.902 92.5627C114.902 95.3872 113.792 96.6596 110.994 96.6596ZM118.213 92.5492C118.213 87.8252 116.183 85.6234 111.062 85.6234H109.88C104.759 85.6234 102.728 87.8252 102.728 92.5492C102.728 97.201 104.799 99.4435 109.907 99.4435H110.994C116.102 99.4435 118.177 97.1875 118.177 92.5492H118.213Z" fill="#731982"/>
<path d="M96.7634 92.5492C96.2581 93.9028 95.4369 94.742 93.1539 94.742H91.5927V86.5483H93.6727C95.6219 86.5483 96.9529 87.7666 96.9529 90.6452C96.9968 91.2863 96.9312 91.9302 96.7589 92.5492H96.7634ZM88.2268 94.7511H86.6747C84.3871 94.7511 83.566 93.8983 83.0651 92.5583C82.8929 91.9392 82.8273 91.2953 82.8711 90.6542C82.8711 87.7756 84.2247 86.5574 86.1513 86.5574H88.2313L88.2268 94.7511ZM93.2576 83.7103H86.5664C81.5717 83.7103 79.5729 86.2415 79.5729 90.6452C79.5662 91.2857 79.613 91.9256 79.7128 92.5583C80.2407 95.6805 82.0725 97.5981 86.7559 97.5981H88.2268V99.3262H91.5927V97.5981H93.0681C97.747 97.5981 99.5789 95.6805 100.107 92.5583C100.207 91.9256 100.253 91.2857 100.247 90.6452C100.247 86.2415 98.2524 83.7103 93.2531 83.7103" fill="#731982"/>
<path d="M28.2494 108.931V116.197H29.5234V106.397H28.2494V107.055L23.6994 113.663V106.397H22.4254V116.197H23.6994V115.539L28.2494 108.931ZM31.6933 116.197H32.9113V113.453H36.2853V116.197H37.4893V109.743H36.2853V112.431H32.9113V109.743H31.6933V116.197ZM44.1597 109.743H38.9797V110.877H40.9537V116.197H42.1717V110.877H44.1597V109.743ZM51.1595 112.599C51.1595 110.821 49.9275 109.575 48.0935 109.575C46.1755 109.575 44.9155 110.905 44.9155 112.963C44.9155 115.049 46.1615 116.365 48.1495 116.365C49.6615 116.365 50.8515 115.539 51.0755 114.349H49.8575C49.5915 114.951 49.0035 115.301 48.1495 115.301C46.9175 115.301 46.1475 114.573 46.1195 113.327H51.1175C51.1455 113.019 51.1595 112.879 51.1595 112.599ZM46.1195 112.403C46.1615 111.311 46.9455 110.527 48.1075 110.527C49.2555 110.527 49.9555 111.269 49.9555 112.403H46.1195ZM56.3183 109.575C55.2823 109.575 54.3583 110.079 53.9523 110.877V109.743H52.7343V119.179H53.9523V115.063C54.3583 115.861 55.2543 116.365 56.2483 116.365C58.1103 116.365 59.4403 114.951 59.4403 112.977C59.4403 110.961 58.1663 109.575 56.3183 109.575ZM56.0803 115.273C54.7923 115.273 53.8963 114.321 53.8963 112.977C53.8963 111.619 54.7923 110.667 56.0803 110.667C57.3263 110.667 58.2223 111.633 58.2223 112.977C58.2223 114.321 57.3263 115.273 56.0803 115.273ZM61.0058 116.197H62.2238V113.453H65.5978V116.197H66.8018V109.743H65.5978V112.431H62.2238V109.743H61.0058V116.197ZM74.6342 112.599C74.6342 110.821 73.4022 109.575 71.5682 109.575C69.6502 109.575 68.3902 110.905 68.3902 112.963C68.3902 115.049 69.6362 116.365 71.6242 116.365C73.1362 116.365 74.3262 115.539 74.5502 114.349H73.3322C73.0662 114.951 72.4782 115.301 71.6242 115.301C70.3922 115.301 69.6222 114.573 69.5942 113.327H74.5922C74.6202 113.019 74.6342 112.879 74.6342 112.599ZM69.5942 112.403C69.6362 111.311 70.4202 110.527 71.5822 110.527C72.7302 110.527 73.4302 111.269 73.4302 112.403H69.5942ZM80.5679 109.743H75.3879V110.877H77.3619V116.197H78.5799V110.877H80.5679V109.743ZM90.0818 111.185C91.2018 110.975 91.9298 110.261 91.9298 108.931C91.9298 107.349 90.7678 106.397 88.8778 106.397H85.6578V116.197H89.0178C90.8938 116.197 92.0558 115.175 92.0558 113.523C92.0558 112.151 91.1458 111.311 90.0818 111.185ZM88.8358 107.531C89.9698 107.531 90.6558 108.091 90.6558 109.099C90.6558 110.065 89.9698 110.667 88.9198 110.667H86.9318V107.531H88.8358ZM89.0038 115.063H86.9318V111.787H89.1018C90.0818 111.787 90.7818 112.431 90.7818 113.397C90.7818 114.447 90.0958 115.063 89.0038 115.063ZM99.4623 112.599C99.4623 110.821 98.2303 109.575 96.3963 109.575C94.4783 109.575 93.2183 110.905 93.2183 112.963C93.2183 115.049 94.4643 116.365 96.4523 116.365C97.9643 116.365 99.1543 115.539 99.3783 114.349H98.1603C97.8943 114.951 97.3063 115.301 96.4523 115.301C95.2203 115.301 94.4503 114.573 94.4223 113.327H99.4203C99.4483 113.019 99.4623 112.879 99.4623 112.599ZM94.4223 112.403C94.4643 111.311 95.2483 110.527 96.4103 110.527C97.5583 110.527 98.2583 111.269 98.2583 112.403H94.4223ZM109.927 115.049V109.743H108.723V115.175H106.091V109.743H104.873V115.175H102.255V109.743H101.037V116.197H109.353V117.877H110.571V115.049H109.927ZM117.755 112.599C117.755 110.821 116.523 109.575 114.689 109.575C112.771 109.575 111.511 110.905 111.511 112.963C111.511 115.049 112.757 116.365 114.745 116.365C116.257 116.365 117.447 115.539 117.671 114.349H116.453C116.187 114.951 115.599 115.301 114.745 115.301C113.513 115.301 112.743 114.573 112.715 113.327H117.713C117.741 113.019 117.755 112.879 117.755 112.599ZM112.715 112.403C112.757 111.311 113.541 110.527 114.703 110.527C115.851 110.527 116.551 111.269 116.551 112.403H112.715ZM122.172 109.323C123.572 109.323 124.524 108.567 124.622 107.321H123.586C123.53 108.063 122.942 108.413 122.172 108.413C121.416 108.413 120.828 108.063 120.772 107.321H119.736C119.82 108.567 120.786 109.323 122.172 109.323ZM123.866 111.689V116.197H125.084V109.743H123.866V110.289L120.548 114.307V109.743H119.33V116.197H120.548V115.679L123.866 111.689Z" fill="#731982"/>
</g>
<defs>
<clipPath id="clip0">
<rect width="150" height="133.328" fill="white"/>
</clipPath>
</defs>
</svg>
