<svg width="21" height="21" viewBox="0 0 21 21" fill="none" xmlns="http://www.w3.org/2000/svg">
<path fill-rule="evenodd" clip-rule="evenodd" d="M12.075 16.8C14.1226 16.8 15.75 15.1725 15.75 13.125C15.75 11.2875 14.385 9.765 12.6 9.5025V0H0V16.8H12.075ZM3.15002 4.2H8.40002V3.14999H3.15002V4.2ZM3.15002 6.3H9.45007V7.35001H3.15002V6.3ZM3.15002 10.5H6.30005V9.45H3.15002V10.5ZM9.50256 15.75C8.82007 15.0675 8.40002 14.175 8.40002 13.125C8.40002 11.2875 9.76501 9.765 11.55 9.5025V1.05H1.05005V15.75H9.50256ZM14.4375 12.0225C14.595 12.3375 14.7 12.705 14.7 13.125C14.7 14.595 13.5449 15.8025 12.075 15.8025C10.605 15.8025 9.44995 14.6475 9.44995 13.1775C9.44995 11.7075 10.605 10.5525 12.075 10.5525C12.7574 10.5525 13.335 10.7625 13.8075 11.1825L12.075 13.02L11.3925 12.285L10.605 12.9675L11.7074 14.175H12.3899L14.4375 12.0225Z" transform="translate(3.1499 2.1001)" fill="currentColor"/>
<mask id="mask0" mask-type="alpha" maskUnits="userSpaceOnUse" x="3" y="2" width="16" height="17">
<path fill-rule="evenodd" clip-rule="evenodd" d="M12.075 16.8C14.1226 16.8 15.75 15.1725 15.75 13.125C15.75 11.2875 14.385 9.765 12.6 9.5025V0H0V16.8H12.075ZM3.15002 4.2H8.40002V3.14999H3.15002V4.2ZM3.15002 6.3H9.45007V7.35001H3.15002V6.3ZM3.15002 10.5H6.30005V9.45H3.15002V10.5ZM9.50256 15.75C8.82007 15.0675 8.40002 14.175 8.40002 13.125C8.40002 11.2875 9.76501 9.765 11.55 9.5025V1.05H1.05005V15.75H9.50256ZM14.4375 12.0225C14.595 12.3375 14.7 12.705 14.7 13.125C14.7 14.595 13.5449 15.8025 12.075 15.8025C10.605 15.8025 9.44995 14.6475 9.44995 13.1775C9.44995 11.7075 10.605 10.5525 12.075 10.5525C12.7574 10.5525 13.335 10.7625 13.8075 11.1825L12.075 13.02L11.3925 12.285L10.605 12.9675L11.7074 14.175H12.3899L14.4375 12.0225Z" transform="translate(3.1499 2.1001)" fill="currentColor"/>
</mask>
</svg>
