<svg width="21" height="21" viewBox="0 0 21 21" fill="currentColor" xmlns="http://www.w3.org/2000/svg">
<path fill-rule="evenodd" clip-rule="evenodd" d="M3.1499 4.20005C3.1499 2.46282 4.56268 1.05005 6.2999 1.05005C8.03713 1.05005 9.4499 2.46282 9.4499 4.20005C9.4499 5.93727 8.03713 7.35005 6.2999 7.35005C4.56268 7.35005 3.1499 5.93727 3.1499 4.20005ZM10.5001 4.2C10.5001 1.88423 8.61587 0 6.3001 0C3.98432 0 2.1001 1.88423 2.1001 4.2C2.1001 6.51577 3.98432 8.4 6.3001 8.4C8.61587 8.4 10.5001 6.51577 10.5001 4.2ZM6.30022 10.5C8.21122 10.5 10.0377 11.1699 11.4793 12.3926L10.5238 15.75H2.07659L1.12109 12.3926C2.56274 11.1699 4.38922 10.5 6.30022 10.5ZM1.28363 16.7999H11.3164L12.6 12.075C11.0024 10.3451 8.5827 9.44995 6.3 9.44995C4.0173 9.44995 1.61228 10.3451 0 12.075L1.28363 16.7999Z" transform="translate(4.2002 2.1001)" fill="currentColor"/>
<mask id="mask0" mask-type="alpha" maskUnits="userSpaceOnUse" x="4" y="2" width="13" height="17">
<path fill-rule="evenodd" clip-rule="evenodd" d="M3.1499 4.20005C3.1499 2.46282 4.56268 1.05005 6.2999 1.05005C8.03713 1.05005 9.4499 2.46282 9.4499 4.20005C9.4499 5.93727 8.03713 7.35005 6.2999 7.35005C4.56268 7.35005 3.1499 5.93727 3.1499 4.20005ZM10.5001 4.2C10.5001 1.88423 8.61587 0 6.3001 0C3.98432 0 2.1001 1.88423 2.1001 4.2C2.1001 6.51577 3.98432 8.4 6.3001 8.4C8.61587 8.4 10.5001 6.51577 10.5001 4.2ZM6.30022 10.5C8.21122 10.5 10.0377 11.1699 11.4793 12.3926L10.5238 15.75H2.07659L1.12109 12.3926C2.56274 11.1699 4.38922 10.5 6.30022 10.5ZM1.28363 16.7999H11.3164L12.6 12.075C11.0024 10.3451 8.5827 9.44995 6.3 9.44995C4.0173 9.44995 1.61228 10.3451 0 12.075L1.28363 16.7999Z" transform="translate(4.2002 2.1001)" fill="currentColor"/>
<path fill-rule="evenodd" clip-rule="evenodd" d="M3.1499 4.20005C3.1499 2.46282 4.56268 1.05005 6.2999 1.05005C8.03713 1.05005 9.4499 2.46282 9.4499 4.20005C9.4499 5.93727 8.03713 7.35005 6.2999 7.35005C4.56268 7.35005 3.1499 5.93727 3.1499 4.20005ZM10.5001 4.2C10.5001 1.88423 8.61587 0 6.3001 0C3.98432 0 2.1001 1.88423 2.1001 4.2C2.1001 6.51577 3.98432 8.4 6.3001 8.4C8.61587 8.4 10.5001 6.51577 10.5001 4.2ZM6.30022 10.5C8.21122 10.5 10.0377 11.1699 11.4793 12.3926L10.5238 15.75H2.07659L1.12109 12.3926C2.56274 11.1699 4.38922 10.5 6.30022 10.5ZM1.28363 16.7999H11.3164L12.6 12.075C11.0024 10.3451 8.5827 9.44995 6.3 9.44995C4.0173 9.44995 1.61228 10.3451 0 12.075L1.28363 16.7999Z" transform="translate(4.2002 2.1001)" stroke="currentColor"/>
</mask>
</svg>
