<svg width="22" height="21" viewBox="0 0 22 21" fill="currentColor" xmlns="http://www.w3.org/2000/svg">
<path fill-rule="evenodd" clip-rule="evenodd" d="M0 6.30005C0 2.83496 2.83716 0 6.30493 0C9.77258 0 12.6099 2.83496 12.6099 6.35254C12.6099 7.54126 12.2404 8.47168 12.1211 8.77197C12.0981 8.82959 12.0845 8.86401 12.0845 8.87256L7.77612 16.8H4.83374L0.525391 8.87256C0.525391 8.8645 0.512817 8.83496 0.491699 8.7854C0.375732 8.51318 0 7.63184 0 6.30005ZM3.67786 6.30005C3.67786 7.77002 4.83374 8.92505 6.30493 8.92505C7.776 8.92505 8.93201 7.77002 8.93201 6.30005C8.93201 4.83008 7.776 3.67505 6.30493 3.67505C4.83374 3.67505 3.67786 4.83008 3.67786 6.30005Z" transform="translate(4.20325 2.1001)" fill="currentColor"/>
<mask id="mask0" mask-type="alpha" maskUnits="userSpaceOnUse" x="4" y="2" width="13" height="17">
<path fill-rule="evenodd" clip-rule="evenodd" d="M0 6.30005C0 2.83496 2.83716 0 6.30493 0C9.77258 0 12.6099 2.83496 12.6099 6.35254C12.6099 7.54126 12.2404 8.47168 12.1211 8.77197C12.0981 8.82959 12.0845 8.86401 12.0845 8.87256L7.77612 16.8H4.83374L0.525391 8.87256C0.525391 8.8645 0.512817 8.83496 0.491699 8.7854C0.375732 8.51318 0 7.63184 0 6.30005ZM3.67786 6.30005C3.67786 7.77002 4.83374 8.92505 6.30493 8.92505C7.776 8.92505 8.93201 7.77002 8.93201 6.30005C8.93201 4.83008 7.776 3.67505 6.30493 3.67505C4.83374 3.67505 3.67786 4.83008 3.67786 6.30005Z" transform="translate(4.20325 2.1001)" fill="white"/>
</mask>
<g mask="url(#mask0)"/>
</svg>
